<svg width="430" height="430" viewBox="0 0 430 430" fill="none" xmlns="http://www.w3.org/2000/svg">
<path d="M86.1001 200.6C100.4 204.4 98.8001 210.2 113.1 214C127.4 217.8 128.9 212 143.2 215.9C157.5 219.7 155.9 225.5 170.2 229.4" stroke="#08A88A" stroke-width="12" stroke-miterlimit="10" stroke-linecap="round" stroke-linejoin="round"/>
<path d="M126.5 284.4L106.5 296L94.9999 275.9C80.8999 251.2 78.2999 221.6 87.8999 194.8L121.3 101.9L190.8 120.5L173.3 217.7C168.2 245.7 151.1 270.1 126.5 284.4Z" stroke="#121331" stroke-width="12" stroke-miterlimit="10" stroke-linecap="round" stroke-linejoin="round"/>
<path d="M106.5 296L81.6001 388.8" stroke="#121331" stroke-width="12" stroke-miterlimit="10" stroke-linecap="round" stroke-linejoin="round"/>
<path d="M55 381.5L108.3 395.8" stroke="#121331" stroke-width="12" stroke-miterlimit="10" stroke-linecap="round" stroke-linejoin="round"/>
<path d="M345.8 206.4C331.5 210.2 330 204.4 315.7 208.3C301.4 212.1 303 217.9 288.7 221.8C274.4 225.6 272.9 219.8 258.6 223.7" stroke="#08A88A" stroke-width="12" stroke-miterlimit="10" stroke-linecap="round" stroke-linejoin="round"/>
<path d="M273.5 111.4L309.1 101.9L342.5 194.8C352.1 221.6 349.5 251.2 335.4 275.9L323.9 296L303.8 284.3C279.2 270 262.1 245.6 257.1 217.6L246.4 158.4" stroke="#121331" stroke-width="12" stroke-miterlimit="10" stroke-linecap="round" stroke-linejoin="round"/>
<path d="M323.9 296L348.8 388.8" stroke="#121331" stroke-width="12" stroke-miterlimit="10" stroke-linecap="round" stroke-linejoin="round"/>
<path d="M375.4 381.5L322.1 395.8" stroke="#121331" stroke-width="12" stroke-miterlimit="10" stroke-linecap="round" stroke-linejoin="round"/>
<path d="M268.8 108.9L282.5 116.4L269 123.7C262.7 127.2 257.7 132.7 254.8 139.3L246.5 158.5L238.2 139.3C235.3 132.7 230.3 127.2 224 123.7L210.5 116.3L224.2 108.8C230.4 105.4 235.3 100.1 238.2 93.6L246.5 75.1L254.8 93.6C257.7 100.1 262.6 105.5 268.8 108.9Z" stroke="#08A88A" stroke-width="12" stroke-miterlimit="10" stroke-linecap="round" stroke-linejoin="round"/>
<path d="M203.1 56.7L211.9 61.5L203.2 66.2C199.1 68.4 195.9 72 194.1 76.2L188.8 88.6L183.5 76.2C181.7 71.9 178.4 68.4 174.4 66.2L165.7 61.5L174.5 56.7C178.5 54.5 181.7 51.1 183.5 46.9L188.7 35L194 46.9C195.9 51 199.1 54.5 203.1 56.7Z" stroke="#08A88A" stroke-width="12" stroke-miterlimit="10" stroke-linecap="round" stroke-linejoin="round"/>
</svg>
