<svg xmlns="http://www.w3.org/2000/svg" width="430" height="430" style="width:100%;height:100%;transform:translate3d(0,0,0);content-visibility:visible" viewBox="0 0 430 430"><defs><path id="a" fill="red" d="m9.897 85.425 20.052 11.662 11.534-20.126a97.045 97.045 0 0 0 7.115-81.107l-33.44-92.941-69.487 18.619 17.51 97.209A97.048 97.048 0 0 0 9.897 85.425z" style="display:block" transform="translate(293.521 178.654)"/><path id="b" fill="red" d="m9.897 85.425 20.052 11.662 11.534-20.126a97.045 97.045 0 0 0 7.115-81.107l-33.44-92.941-69.487 18.619 17.51 97.209A97.048 97.048 0 0 0 9.897 85.425z" style="display:block" transform="translate(293.521 178.654)"/><path id="c" fill="red" d="M44.877-104.312 24.825-92.649l-11.533-20.126a97.045 97.045 0 0 1-7.116-81.107l33.44-92.942 69.487 18.619-17.51 97.21a97.046 97.046 0 0 1-46.716 66.683z" style="display:block" transform="translate(81.189 368.391)"/><path id="d" fill="red" d="M44.877-104.312 24.825-92.649l-11.533-20.126a97.045 97.045 0 0 1-7.116-81.107l33.44-92.942 69.487 18.619-17.51 97.21a97.046 97.046 0 0 1-46.716 66.683z" style="display:block" transform="translate(81.189 368.391)"/><mask id="k" mask-type="alpha"><use xmlns:ns1="http://www.w3.org/1999/xlink" ns1:href="#a"/></mask><mask id="j" mask-type="alpha"><use xmlns:ns2="http://www.w3.org/1999/xlink" ns2:href="#b"/></mask><mask id="i" mask-type="alpha"><use xmlns:ns3="http://www.w3.org/1999/xlink" ns3:href="#c"/></mask><mask id="h" mask-type="alpha"><use xmlns:ns4="http://www.w3.org/1999/xlink" ns4:href="#d"/></mask><clipPath id="e"><path d="M0 0h430v430H0z"/></clipPath><clipPath id="f"><path d="M0 0h430v430H0z"/></clipPath><clipPath id="g"><path d="M0 0h430v430H0z"/></clipPath></defs><g clip-path="url(#e)"><g clip-path="url(#f)" style="display:block"><g clip-path="url(#g)" style="display:block"><path fill="#EBE6EE" d="m-9.897 85.425-20.052 11.662-11.534-20.126a97.045 97.045 0 0 1-7.115-81.107l33.44-92.941 69.487 18.619-17.51 97.209A97.048 97.048 0 0 1-9.897 85.425z" class="secondary" style="display:block" transform="translate(136.221 178.538)"/><g mask="url(#h)" style="display:block"><path fill="#F18AA8" d="M200.591 211.277c14.283 3.827 12.73 9.623 27.013 13.45 14.285 3.828 15.838-1.968 30.123 1.86 14.285 3.828 12.732 9.623 27.017 13.451l71.195 147.177-301.448-32.679s-69.843-123.663-71.71-131.442c-1.867-7.779 102.331-43.104 102.331-43.104m1.14.576c14.283 3.827 12.23 9.747 26.513 13.574 14.285 3.828 16.338-2.093 30.623 1.735m.149.126c14.283 3.827 12.73 9.623 27.013 13.45 14.285 3.828 15.837-1.969 30.122 1.859" class="tertiary"/></g><path fill="#EBE6EE" d="M-79-36.75-126-34l24.25 10 4.186.647L-71-19.25l26.095 12.257L-43.25-13-79-36.75z" class="secondary" style="display:block" transform="translate(215 215)"/><g opacity=".5" style="mix-blend-mode:multiply;display:block"><path fill="#EBE6EE" d="m-111.786-16.732 32.74-92.826-14.874-3.985-33.441 92.941a97.045 97.045 0 0 0 7.116 81.107l10.016 17.5 1.501 2.62 2.61-1.518 6.645-3.849-5.197-9.251c-14.147-25.182-16.748-55.429-7.116-82.739z" class="secondary" opacity="1" style="mix-blend-mode:multiply" transform="translate(214.875 194.75)"/></g><g mask="url(#i)" style="display:block"><path fill="none" stroke="#121330" stroke-linecap="round" stroke-linejoin="round" stroke-width="7" d="M200.591 211.277c14.283 3.827 12.73 9.623 27.013 13.45 14.285 3.828 15.838-1.968 30.123 1.86 14.285 3.828 12.732 9.623 27.017 13.451l71.195 147.177-301.448-32.679s-69.843-123.663-71.71-131.442c-1.867-7.779 102.331-43.104 102.331-43.104m1.14.576c14.283 3.827 12.73 9.622 27.013 13.449 14.285 3.828 15.838-1.968 30.123 1.86m.149.126c14.283 3.827 12.73 9.623 27.013 13.45 14.285 3.828 15.837-1.969 30.122 1.859" class="primary"/></g><path fill="none" stroke="#121330" stroke-linecap="round" stroke-linejoin="round" stroke-width="7" d="M44.877-104.312 24.825-92.649l-11.533-20.126a97.045 97.045 0 0 1-7.116-81.107l33.44-92.942 69.487 18.619-17.51 97.21a97.046 97.046 0 0 1-46.716 66.683zM24.844-92.717-.018.068m-26.616-7.205L26.634 7.137" class="primary" style="display:block" transform="translate(81.189 368.391)"/><g opacity=".99" style="display:block"><path fill="#EBE6EE" d="m303.176 263.963 20.052 11.662 11.534-20.126a97.045 97.045 0 0 0 7.115-81.107l-33.44-92.941-69.487 18.619 17.51 97.209a97.048 97.048 0 0 0 46.716 66.684z" class="secondary" opacity="1"/></g><g mask="url(#j)" style="display:block"><path fill="#F18AA8" d="M372.9 170.718c14.214-4.076 15.868 1.692 30.082-2.384 14.216-4.076 12.562-9.844 26.778-13.92 14.216-4.076 15.87 1.691 30.086-2.385l136.828 89.487L321.45 368.762s-123.558-70.028-129.165-75.734c-5.607-5.707 65.515-89.652 65.515-89.652m1.274-.093c14.214-4.076 15.503 2.056 29.717-2.02 14.216-4.076 12.926-10.21 27.142-14.285m.193.031c14.214-4.076 15.868 1.692 30.082-2.384 14.216-4.076 12.56-9.844 26.777-13.92" class="tertiary"/></g><path fill="#EBE6EE" d="m-79-36.75-49.748.009 4.555 4.114 27.895 10.582 28.43 2.871 22.963 12.181L-43.25-13-79-36.75z" class="secondary" style="display:block" transform="rotate(-30 507.8 -637.67)"/><g opacity=".5" style="mix-blend-mode:multiply;display:block"><path fill="#EBE6EE" d="M34.494 73.765A97.046 97.046 0 0 1-12.223 7.08l-17.458-96.919-15.308 4.102 17.51 97.21a97.043 97.043 0 0 0 46.716 66.683l17.442 10.165 2.61 1.518 1.501-2.62 4.199-7.349-10.495-6.105z" class="secondary" opacity="1" style="mix-blend-mode:multiply" transform="translate(284.439 185.786)"/></g><g mask="url(#k)" style="display:block"><path fill="none" stroke="#121330" stroke-linecap="round" stroke-linejoin="round" stroke-width="7" d="M372.9 171.218c14.214-4.076 15.868 1.692 30.082-2.384 14.216-4.076 12.562-9.844 26.778-13.92 14.216-4.076 15.87 1.691 30.086-2.385m-200.771 51.254c14.214-4.076 15.867 1.69 30.081-2.385 14.216-4.076 12.562-9.844 26.778-13.92m.193.031c14.214-4.076 15.868 1.692 30.082-2.384 14.216-4.076 12.56-9.844 26.777-13.92" class="primary"/></g><path fill="none" stroke="#121330" stroke-linecap="round" stroke-linejoin="round" stroke-width="7" d="m-44.877-104.312 20.052 11.663 11.533-20.126a97.045 97.045 0 0 0 7.116-81.107l-33.44-92.942-69.487 18.619 17.51 97.21a97.046 97.046 0 0 0 46.716 66.683zm20.033 11.595L.018.068m26.616-7.205L-26.634 7.137" class="primary" style="display:block" transform="translate(348.295 368.391)"/></g><path fill="#FFC638" d="M22.322-8.014 36.034-.515 22.53 6.871A32.456 32.456 0 0 0 8.312 22.468L0 41.697l-8.312-19.229A32.456 32.456 0 0 0-22.53 6.871L-36.034-.515l13.712-7.499A32.45 32.45 0 0 0-8.276-23.222L0-41.697l8.276 18.475A32.45 32.45 0 0 0 22.322-8.014z" class="quaternary" style="display:block" transform="translate(246.053 96.578)"/><path fill="none" stroke="#121330" stroke-linecap="round" stroke-linejoin="round" stroke-width="7" d="M22.322-8.014 36.034-.515 22.53 6.871A32.456 32.456 0 0 0 8.312 22.468L0 41.697l-8.312-19.229A32.456 32.456 0 0 0-22.53 6.871L-36.034-.515l13.712-7.499A32.45 32.45 0 0 0-8.276-23.222L0-41.697l8.276 18.475A32.45 32.45 0 0 0 22.322-8.014z" class="primary" style="display:block" transform="translate(246.053 96.578)"/><path fill="#FFC638" d="m14.352-5.153 8.816 4.822-8.682 4.749a20.867 20.867 0 0 0-9.141 10.028L0 26.809l-5.345-12.363a20.867 20.867 0 0 0-9.141-10.028l-8.682-4.749 8.816-4.822a20.864 20.864 0 0 0 9.031-9.778L0-26.809l5.321 11.878a20.864 20.864 0 0 0 9.031 9.778z" class="quaternary" style="display:block" transform="translate(188.292 41.515)"/><path fill="none" stroke="#121330" stroke-linecap="round" stroke-linejoin="round" stroke-width="7" d="m14.352-5.153 8.816 4.822-8.682 4.749a20.867 20.867 0 0 0-9.141 10.028L0 26.809l-5.345-12.363a20.867 20.867 0 0 0-9.141-10.028l-8.682-4.749 8.816-4.822a20.864 20.864 0 0 0 9.031-9.778L0-26.809l5.321 11.878a20.864 20.864 0 0 0 9.031 9.778z" class="primary" style="display:block" transform="translate(188.292 41.515)"/></g></g></svg>